# xmcd
#
# Track frame offsets:
#	150
#	14779
#	30119
#	45275
#	61202
#	76334
#	94524
#	112846
#	128976
#	142387
#	158404
#	176745
#
# Disc length: 2563 seconds
#
# Revision: 0
# Processed by: cddbd v1.5.2PL0 Copyright (c) Steve Scherf et al.
# Submitted via: EZCDAudioConverter 1.0.4.1
#
DISCID=8e0a010c
DTITLE=Curtis Grimes - Our Side of the Fence
DYEAR=2014
DGENRE=Country
TTITLE0=Who Knew
TTITLE1=Song for You Baby
TTITLE2=The Cowboy Kind
TTITLE3=Honeycomb
TTITLE4=Keg Party
TTITLE5=Our Side of the Fence
TTITLE6=Better Off
TTITLE7=Drunk for That
TTITLE8=Wet
TTITLE9=Baby Don't Cry
TTITLE10=Texas Plates
TTITLE11=Think I Know
EXTD=
EXTT0=
EXTT1=
EXTT2=
EXTT3=
EXTT4=
EXTT5=
EXTT6=
EXTT7=
EXTT8=
EXTT9=
EXTT10=
EXTT11=
PLAYORDER=
